/* XPM */
static char *e21125c43f294500821065f1a799c2627kqJ2Xh1IFwDxoT7[] = {
/* columns rows colors chars-per-pixel */
"32 32 3 1 ",
"  c gray47",
". c #612020",
"X c white",
/* pixels */
"                ................",
"                ................",
"                ................",
"                ................",
"                ................",
"                ................",
"                ................",
"                ................",
"                ................",
"                ................",
"                ................",
"                ................",
"                ................",
"                ................",
"                ................",
"                ................",
"................                ",
"................                ",
"................                ",
"................                ",
"................                ",
"................                ",
"................                ",
"................                ",
"................                ",
"................                ",
"................                ",
"................                ",
"................                ",
"................                ",
"................                ",
"................                "
};
