/* XPM */
static char *_d856e1774f9406ef3e6d07f8ccdedb2qcTDKEmjmn6uNfgf[] = {
/* columns rows colors chars-per-pixel */
"128 128 2 1 ",
"  c #612020",
". c gray47",
/* pixels */
"................................................................                                                                ",
"................................................................                                                                ",
"................................................................                                                                ",
"................................................................                                                                ",
"................................................................                                                                ",
"................................................................                                                                ",
"................................................................                                                                ",
"................................................................                                                                ",
"................................................................                                                                ",
"................................................................                                                                ",
"................................................................                                                                ",
"................................................................                                                                ",
"................................................................                                                                ",
"................................................................                                                                ",
"................................................................                                                                ",
"................................................................                                                                ",
"................................................................                                                                ",
"................................................................                                                                ",
"................................................................                                                                ",
"................................................................                                                                ",
"................................................................                                                                ",
"................................................................                                                                ",
"................................................................                                                                ",
"................................................................                                                                ",
"................................................................                                                                ",
"................................................................                                                                ",
"................................................................                                                                ",
"................................................................                                                                ",
"................................................................                                                                ",
"................................................................                                                                ",
"................................................................                                                                ",
"................................................................                                                                ",
"................................................................                                                                ",
"................................................................                                                                ",
"................................................................                                                                ",
"................................................................                                                                ",
"................................................................                                                                ",
"................................................................                                                                ",
"................................................................                                                                ",
"................................................................                                                                ",
"................................................................                                                                ",
"................................................................                                                                ",
"................................................................                                                                ",
"................................................................                                                                ",
"................................................................                                                                ",
"................................................................                                                                ",
"................................................................                                                                ",
"................................................................                                                                ",
"................................................................                                                                ",
"................................................................                                                                ",
"................................................................                                                                ",
"................................................................                                                                ",
"................................................................                                                                ",
"................................................................                                                                ",
"................................................................                                                                ",
"................................................................                                                                ",
"................................................................                                                                ",
"................................................................                                                                ",
"................................................................                                                                ",
"................................................................                                                                ",
"................................................................                                                                ",
"................................................................                                                                ",
"................................................................                                                                ",
"................................................................                                                                ",
"                                                                ................................................................",
"                                                                ................................................................",
"                                                                ................................................................",
"                                                                ................................................................",
"                                                                ................................................................",
"                                                                ................................................................",
"                                                                ................................................................",
"                                                                ................................................................",
"                                                                ................................................................",
"                                                                ................................................................",
"                                                                ................................................................",
"                                                                ................................................................",
"                                                                ................................................................",
"                                                                ................................................................",
"                                                                ................................................................",
"                                                                ................................................................",
"                                                                ................................................................",
"                                                                ................................................................",
"                                                                ................................................................",
"                                                                ................................................................",
"                                                                ................................................................",
"                                                                ................................................................",
"                                                                ................................................................",
"                                                                ................................................................",
"                                                                ................................................................",
"                                                                ................................................................",
"                                                                ................................................................",
"                                                                ................................................................",
"                                                                ................................................................",
"                                                                ................................................................",
"                                                                ................................................................",
"                                                                ................................................................",
"                                                                ................................................................",
"                                                                ................................................................",
"                                                                ................................................................",
"                                                                ................................................................",
"                                                                ................................................................",
"                                                                ................................................................",
"                                                                ................................................................",
"                                                                ................................................................",
"                                                                ................................................................",
"                                                                ................................................................",
"                                                                ................................................................",
"                                                                ................................................................",
"                                                                ................................................................",
"                                                                ................................................................",
"                                                                ................................................................",
"                                                                ................................................................",
"                                                                ................................................................",
"                                                                ................................................................",
"                                                                ................................................................",
"                                                                ................................................................",
"                                                                ................................................................",
"                                                                ................................................................",
"                                                                ................................................................",
"                                                                ................................................................",
"                                                                ................................................................",
"                                                                ................................................................",
"                                                                ................................................................",
"                                                                ................................................................",
"                                                                ................................................................",
"                                                                ................................................................",
"                                                                ................................................................",
"                                                                ................................................................"
};
